<?xml version="1.0" encoding="iso-8859-1"?>
<!-- Uploaded to: SVG Repo, www.svgrepo.com, Generator: SVG Repo Mixer Tools -->
<svg fill="#000000" version="1.1" id="Layer_1" xmlns="http://www.w3.org/2000/svg" xmlns:xlink="http://www.w3.org/1999/xlink" 
	 viewBox="0 0 512 512" xml:space="preserve">
<g>
	<g>
		<rect x="128.006" y="170.667" width="128" height="42.667"/>
	</g>
</g>
<g>
	<g>
		<path d="M490.667,42.667H21.333C9.536,42.667,0,52.224,0,64v384c0,11.776,9.536,21.333,21.333,21.333h469.333
			c11.797,0,21.333-9.557,21.333-21.333V64C512,52.224,502.464,42.667,490.667,42.667z M170.667,384H85.333v-85.333h85.333V384z
			 M298.667,384h-85.333v-85.333h85.333V384z M298.667,234.667c0,11.776-9.536,21.333-21.333,21.333H106.667
			c-11.797,0-21.333-9.557-21.333-21.333v-85.333c0-11.776,9.536-21.333,21.333-21.333h170.667c11.797,0,21.333,9.557,21.333,21.333
			V234.667z M426.667,384h-85.333v-85.333h85.333V384z M405.333,213.333h-42.667c-11.797,0-21.333-9.557-21.333-21.333
			c0-11.776,9.536-21.333,21.333-21.333h42.667c11.797,0,21.333,9.557,21.333,21.333
			C426.667,203.776,417.13,213.333,405.333,213.333z"/>
	</g>
</g>
</svg>