<svg width="100" height="100" viewBox="0 0 100 100" fill="none" xmlns="http://www.w3.org/2000/svg">
<rect width="100" height="100" rx="24" fill="#FF751F"/>
<path d="M36.705 71.1525C35.1511 70.8792 33.9713 70.2749 33.1656 69.3397C32.3599 68.4189 31.957 67.1959 31.957 65.6708V35.7805C31.957 34.5719 32.216 33.5576 32.734 32.7375C33.2519 31.903 33.9641 31.3131 34.8705 30.9678C35.777 30.6081 36.8344 30.529 38.043 30.7304L61.2431 34.8309C63.6459 35.2481 65.4227 36.0035 66.5737 37.0969C67.7391 38.1904 68.3218 39.9241 68.3218 42.2981V68.3469C68.3218 70.0591 68.0053 71.4906 67.3723 72.6416C66.7536 73.7927 65.8687 74.6056 64.7177 75.0804C63.5667 75.5695 62.2071 75.6702 60.6388 75.3825L36.705 71.1525ZM41.2802 44.2836L57.6606 47.1755C58.2649 47.2762 58.7541 47.1611 59.1281 46.8302C59.5166 46.4993 59.7108 46.0532 59.7108 45.4921C59.7108 44.4994 59.2216 43.9095 58.2433 43.7224L41.9708 40.8521C41.3666 40.7514 40.863 40.8665 40.4601 41.1974C40.0573 41.5139 39.8559 41.9528 39.8559 42.5139C39.8559 42.9743 39.9782 43.37 40.2227 43.7009C40.4817 44.0174 40.8342 44.2116 41.2802 44.2836ZM41.2802 53.2615L57.6606 56.175C58.2649 56.2757 58.7541 56.1606 59.1281 55.8297C59.5166 55.4844 59.7108 55.024 59.7108 54.4484C59.7108 53.4701 59.2216 52.8946 58.2433 52.7219L41.9708 49.8516C41.3666 49.7509 40.863 49.866 40.4601 50.1969C40.0573 50.5134 39.8559 50.9451 39.8559 51.4918C39.8559 51.9666 39.9853 52.3622 40.2443 52.6788C40.5033 52.9953 40.8486 53.1895 41.2802 53.2615ZM43.7621 28.637L57.7469 26.1551C60.5093 25.6803 62.7035 25.9825 64.3293 27.0615C65.9551 28.1406 66.8039 29.8743 66.8759 32.2627V33.5144C65.4947 32.7375 63.7897 32.1692 61.7611 31.8095L43.7621 28.637Z" fill="white"/>
</svg>
