<svg width="23" height="25" viewBox="0 0 23 25" fill="none" xmlns="http://www.w3.org/2000/svg">
  <path
    d="M11.0195 24.6211C10.2148 24.6211 9.64453 24.4727 9.30859 24.1758C8.98047 23.8867 8.81641 23.3398 8.81641 22.5352V15.2109L9.92969 15.8086L3.55469 19.4883C3.30469 19.6289 3.07031 19.7422 2.85156 19.8281C2.64062 19.9062 2.44141 19.9453 2.25391 19.9453C1.93359 19.9453 1.64844 19.8398 1.39844 19.6289C1.15625 19.4102 0.910156 19.082 0.660156 18.6445L0.589844 18.5391C0.433594 18.2656 0.3125 18.0117 0.226562 17.7773C0.140625 17.543 0.0976562 17.3281 0.0976562 17.1328C0.0976562 16.8203 0.199219 16.5469 0.402344 16.3125C0.613281 16.0703 0.917969 15.832 1.31641 15.5977L7.78516 11.8711V13.0898L1.32812 9.49219C0.914062 9.26562 0.609375 9.03125 0.414062 8.78906C0.226562 8.54688 0.132812 8.27734 0.132812 7.98047C0.132812 7.77734 0.171875 7.5625 0.25 7.33594C0.328125 7.10938 0.4375 6.85547 0.578125 6.57422L0.648438 6.44531C0.875 6 1.11328 5.66797 1.36328 5.44922C1.62109 5.23047 1.90625 5.12109 2.21875 5.12109C2.41406 5.12109 2.62109 5.16406 2.83984 5.25C3.06641 5.32813 3.30859 5.44141 3.56641 5.58984L9.92969 9.26953L8.81641 9.87891V2.55469C8.81641 1.75 8.98047 1.20313 9.30859 0.914062C9.64453 0.617188 10.2148 0.46875 11.0195 0.46875H11.1719C11.9766 0.46875 12.543 0.617188 12.8711 0.914062C13.207 1.20313 13.375 1.75 13.375 2.55469V9.87891L12.2734 9.26953L18.6367 5.58984C18.8945 5.44922 19.1289 5.33984 19.3398 5.26172C19.5586 5.18359 19.7578 5.14453 19.9375 5.14453C20.25 5.14453 20.5312 5.25391 20.7812 5.47266C21.0312 5.68359 21.2852 6.00391 21.543 6.43359L21.6133 6.57422C21.7695 6.84766 21.8867 7.09766 21.9648 7.32422C22.0508 7.55078 22.0938 7.76562 22.0938 7.96875C22.0938 8.27344 21.9922 8.54688 21.7891 8.78906C21.5938 9.03125 21.293 9.26562 20.8867 9.49219L14.4297 13.0898V11.8711L20.8867 15.5977C21.293 15.832 21.5977 16.0703 21.8008 16.3125C22.0117 16.5547 22.1172 16.832 22.1172 17.1445C22.1172 17.5352 21.9453 18 21.6016 18.5391L21.5195 18.6797C21.2617 19.0938 21.0117 19.4062 20.7695 19.6172C20.5273 19.8281 20.2461 19.9336 19.9258 19.9336C19.7461 19.9336 19.5508 19.8945 19.3398 19.8164C19.1289 19.7383 18.8945 19.6289 18.6367 19.4883L12.2734 15.8086L13.375 15.2109V22.5352C13.375 23.3398 13.207 23.8867 12.8711 24.1758C12.543 24.4727 11.9766 24.6211 11.1719 24.6211H11.0195Z"
    fill="currentColor" />
</svg>