<svg width="23" height="19" viewBox="0 0 23 19" fill="none" xmlns="http://www.w3.org/2000/svg">
<path d="M11.3154 11.6758C11.8193 11.6758 12.25 11.4941 12.6074 11.1309C12.9707 10.7617 13.1523 10.3223 13.1523 9.8125C13.1523 9.48438 13.0674 9.17969 12.8975 8.89844C12.7334 8.61719 12.5107 8.3916 12.2295 8.22168C11.9541 8.05176 11.6494 7.9668 11.3154 7.9668C10.7998 7.9668 10.3633 8.15137 10.0059 8.52051C9.64844 8.88379 9.46973 9.31445 9.46973 9.8125C9.46973 10.3223 9.64844 10.7617 10.0059 11.1309C10.3633 11.4941 10.7998 11.6758 11.3154 11.6758ZM7.82617 17.0459H19.6035C20.0078 17.0459 20.3213 16.9404 20.5439 16.7295C20.7666 16.5186 20.8779 16.1992 20.8779 15.7715V14.5146L17.6611 11.4912C17.4912 11.3389 17.3066 11.2246 17.1074 11.1484C16.9141 11.0723 16.7148 11.0342 16.5098 11.0342C16.293 11.0342 16.0908 11.0693 15.9033 11.1396C15.7158 11.21 15.5342 11.3242 15.3584 11.4824L11.8955 14.5498L10.5156 13.3018C10.3516 13.1494 10.1816 13.041 10.0059 12.9766C9.83008 12.9062 9.65137 12.8711 9.46973 12.8711C9.30566 12.8711 9.1416 12.9062 8.97754 12.9766C8.81348 13.0469 8.64941 13.1494 8.48535 13.2842L6.56055 14.9893V15.7715C6.56055 16.1992 6.66895 16.5186 6.88574 16.7295C7.10254 16.9404 7.41602 17.0459 7.82617 17.0459ZM7.7207 18.7686C6.77148 18.7686 6.05371 18.5283 5.56738 18.0479C5.08105 17.5674 4.83789 16.8555 4.83789 15.9121V7.5625C4.83789 6.625 5.08105 5.91602 5.56738 5.43555C6.05371 4.94922 6.77148 4.70605 7.7207 4.70605H19.7178C20.6611 4.70605 21.376 4.94922 21.8623 5.43555C22.3545 5.92187 22.6006 6.63086 22.6006 7.5625V15.9121C22.6006 16.8555 22.3545 17.5674 21.8623 18.0479C21.376 18.5283 20.6611 18.7686 19.7178 18.7686H7.7207ZM7.7207 3.43164C6.84766 3.43164 6.10059 3.5957 5.47949 3.92383C4.8584 4.25195 4.38086 4.72656 4.04688 5.34766C3.71289 5.96289 3.5459 6.70117 3.5459 7.5625V14.5938H3.23828C2.29492 14.582 1.58301 14.3359 1.10254 13.8555C0.62793 13.375 0.390625 12.6689 0.390625 11.7373V3.3877C0.390625 2.44434 0.633789 1.73242 1.12012 1.25195C1.60645 0.771484 2.32422 0.53125 3.27344 0.53125H15.2705C16.2021 0.53125 16.9111 0.765625 17.3975 1.23438C17.8896 1.70312 18.1416 2.39453 18.1533 3.30859V3.43164H7.7207Z" fill="black" fill-opacity="0.4"/>
</svg>
