<svg width="347" height="100" viewBox="0 0 347 100" fill="none" xmlns="http://www.w3.org/2000/svg">
<rect width="100" height="100" rx="24" fill="#FF751F"/>
<path d="M36.705 71.1525C35.1511 70.8792 33.9713 70.2749 33.1656 69.3397C32.3599 68.4189 31.957 67.1959 31.957 65.6708V35.7805C31.957 34.5719 32.216 33.5576 32.734 32.7375C33.2519 31.903 33.9641 31.3131 34.8705 30.9678C35.777 30.6081 36.8344 30.529 38.043 30.7304L61.2431 34.8309C63.6459 35.2481 65.4227 36.0035 66.5737 37.0969C67.7391 38.1904 68.3218 39.9241 68.3218 42.2981V68.3469C68.3218 70.0591 68.0053 71.4906 67.3723 72.6416C66.7536 73.7927 65.8687 74.6056 64.7177 75.0804C63.5667 75.5695 62.2071 75.6702 60.6388 75.3825L36.705 71.1525ZM41.2802 44.2836L57.6606 47.1755C58.2649 47.2762 58.7541 47.1611 59.1281 46.8302C59.5166 46.4993 59.7108 46.0532 59.7108 45.4921C59.7108 44.4994 59.2216 43.9095 58.2433 43.7224L41.9708 40.8521C41.3666 40.7514 40.863 40.8665 40.4601 41.1974C40.0573 41.5139 39.8559 41.9528 39.8559 42.5139C39.8559 42.9743 39.9782 43.37 40.2227 43.7009C40.4817 44.0174 40.8342 44.2116 41.2802 44.2836ZM41.2802 53.2615L57.6606 56.175C58.2649 56.2757 58.7541 56.1606 59.1281 55.8297C59.5166 55.4844 59.7108 55.024 59.7108 54.4484C59.7108 53.4701 59.2216 52.8946 58.2433 52.7219L41.9708 49.8516C41.3666 49.7509 40.863 49.866 40.4601 50.1969C40.0573 50.5134 39.8559 50.9451 39.8559 51.4918C39.8559 51.9666 39.9853 52.3622 40.2443 52.6788C40.5033 52.9953 40.8486 53.1895 41.2802 53.2615ZM43.7621 28.637L57.7469 26.1551C60.5093 25.6803 62.7035 25.9825 64.3293 27.0615C65.9551 28.1406 66.8039 29.8743 66.8759 32.2627V33.5144C65.4947 32.7375 63.7897 32.1692 61.7611 31.8095L43.7621 28.637Z" fill="white"/>
<path d="M322.352 77.5606C318.245 77.5606 314.539 76.654 311.232 74.8406C307.979 72.974 305.419 70.414 303.552 67.1606C301.685 63.9073 300.752 60.0673 300.752 55.6406C300.752 51.214 301.685 47.374 303.552 44.1206C305.419 40.8673 307.979 38.334 311.232 36.5206C314.539 34.7073 318.245 33.8006 322.352 33.8006C325.925 33.8006 329.125 34.6006 331.952 36.2006C334.779 37.7473 337.019 40.1206 338.672 43.3206C340.325 46.5206 341.152 50.6273 341.152 55.6406C341.152 60.6006 340.352 64.7073 338.752 67.9606C337.152 71.1606 334.939 73.5606 332.112 75.1606C329.285 76.7606 326.032 77.5606 322.352 77.5606ZM323.552 69.0006C325.952 69.0006 328.085 68.4673 329.952 67.4006C331.872 66.334 333.392 64.7873 334.512 62.7606C335.685 60.734 336.272 58.3606 336.272 55.6406C336.272 52.8673 335.685 50.494 334.512 48.5206C333.392 46.494 331.872 44.9473 329.952 43.8806C328.085 42.814 325.952 42.2806 323.552 42.2806C321.152 42.2806 318.992 42.814 317.072 43.8806C315.205 44.9473 313.685 46.494 312.512 48.5206C311.392 50.494 310.832 52.8673 310.832 55.6406C310.832 58.3606 311.392 60.734 312.512 62.7606C313.685 64.7873 315.205 66.334 317.072 67.4006C318.992 68.4673 321.152 69.0006 323.552 69.0006ZM336.512 77.0006V66.9206L336.912 55.5606L336.112 44.2006V17.6406H346.032V77.0006H336.512Z" fill="black"/>
<path d="M271.459 77.0008V34.2808H280.979V46.0408L279.859 42.6008C281.139 39.7208 283.139 37.5341 285.859 36.0408C288.632 34.5474 292.072 33.8008 296.179 33.8008V43.3208C295.752 43.2141 295.352 43.1608 294.979 43.1608C294.606 43.1074 294.232 43.0808 293.859 43.0808C290.072 43.0808 287.059 44.2008 284.819 46.4408C282.579 48.6274 281.459 51.9074 281.459 56.2808V77.0008H271.459Z" fill="black"/>
<path d="M249.186 77.0008V68.3608L248.626 66.5208V51.4008C248.626 48.4674 247.746 46.2008 245.986 44.6008C244.226 42.9474 241.56 42.1208 237.986 42.1208C235.586 42.1208 233.213 42.4941 230.866 43.2408C228.573 43.9874 226.626 45.0274 225.026 46.3608L221.106 39.0808C223.4 37.3208 226.12 36.0141 229.266 35.1608C232.466 34.2541 235.773 33.8008 239.186 33.8008C245.373 33.8008 250.146 35.2941 253.506 38.2808C256.92 41.2141 258.626 45.7741 258.626 51.9608V77.0008H249.186ZM235.746 77.5608C232.546 77.5608 229.746 77.0274 227.346 75.9608C224.946 74.8408 223.08 73.3208 221.746 71.4008C220.466 69.4274 219.826 67.2141 219.826 64.7608C219.826 62.3608 220.386 60.2008 221.506 58.2808C222.68 56.3608 224.573 54.8408 227.186 53.7208C229.8 52.6008 233.266 52.0408 237.586 52.0408H249.986V58.6808H238.306C234.893 58.6808 232.6 59.2408 231.426 60.3608C230.253 61.4274 229.666 62.7608 229.666 64.3608C229.666 66.1741 230.386 67.6141 231.826 68.6808C233.266 69.7474 235.266 70.2808 237.826 70.2808C240.28 70.2808 242.466 69.7208 244.386 68.6008C246.36 67.4808 247.773 65.8274 248.626 63.6408L250.306 69.6408C249.346 72.1474 247.613 74.0941 245.106 75.4808C242.653 76.8675 239.533 77.5608 235.746 77.5608Z" fill="black"/>
<path d="M195.981 77.5608C191.501 77.5608 187.501 76.6275 183.981 74.7608C180.515 72.8408 177.795 70.2274 175.821 66.9208C173.848 63.6141 172.861 59.8541 172.861 55.6408C172.861 51.3741 173.848 47.6141 175.821 44.3608C177.795 41.0541 180.515 38.4674 183.981 36.6008C187.501 34.7341 191.501 33.8008 195.981 33.8008C200.141 33.8008 203.795 34.6541 206.941 36.3608C210.141 38.0141 212.568 40.4674 214.221 43.7208L206.541 48.2008C205.261 46.1741 203.688 44.6808 201.821 43.7208C200.008 42.7608 198.035 42.2808 195.901 42.2808C193.448 42.2808 191.235 42.8141 189.261 43.8808C187.288 44.9474 185.741 46.4941 184.621 48.5208C183.501 50.4941 182.941 52.8674 182.941 55.6408C182.941 58.4141 183.501 60.8141 184.621 62.8408C185.741 64.8141 187.288 66.3341 189.261 67.4008C191.235 68.4675 193.448 69.0008 195.901 69.0008C198.035 69.0008 200.008 68.5208 201.821 67.5608C203.688 66.6008 205.261 65.1075 206.541 63.0808L214.221 67.5608C212.568 70.7608 210.141 73.2408 206.941 75.0008C203.795 76.7074 200.141 77.5608 195.981 77.5608Z" fill="black"/>
<path d="M126.088 77.0013L144.888 52.5212L144.728 57.8813L126.808 34.2812H137.928L150.488 51.0813H146.248L158.888 34.2812H169.688L151.608 57.8813L151.688 52.5212L170.408 77.0013H159.128L145.928 59.1613L150.088 59.7213L137.128 77.0013H126.088Z" fill="black"/>
</svg>
