<svg width="23" height="25" viewBox="0 0 23 25" fill="none" xmlns="http://www.w3.org/2000/svg">
  <path
    d="M11.0195 24.7031C10.1211 24.7031 9.46484 24.5117 9.05078 24.1289C8.64453 23.7539 8.44141 23.1406 8.44141 22.2891V17.4844L4.29297 19.8867C3.76172 20.1914 3.28516 20.3438 2.86328 20.3438C2.48828 20.3438 2.14062 20.2227 1.82031 19.9805C1.5 19.7383 1.19531 19.3672 0.90625 18.8672L0.625 18.375C0.273438 17.7656 0.0976562 17.2344 0.0976562 16.7812C0.0976562 16.4141 0.207031 16.082 0.425781 15.7852C0.652344 15.4805 0.988281 15.1992 1.43359 14.9414L5.59375 12.5391L1.43359 10.1367C0.550781 9.63672 0.109375 9.02734 0.109375 8.30859C0.109375 7.85547 0.285156 7.32031 0.636719 6.70312L0.90625 6.23438C1.20312 5.72656 1.50781 5.35156 1.82031 5.10938C2.14062 4.85938 2.49609 4.73438 2.88672 4.73438C3.30078 4.73438 3.76953 4.88672 4.29297 5.19141L8.44141 7.59375V2.80078C8.44141 1.94922 8.64453 1.33594 9.05078 0.960938C9.46484 0.578125 10.1211 0.386719 11.0195 0.386719H11.5703C12.4688 0.386719 13.125 0.578125 13.5391 0.960938C13.9531 1.33594 14.1602 1.94922 14.1602 2.80078V7.59375L18.3086 5.19141C18.832 4.88672 19.3047 4.73438 19.7266 4.73438C20.1094 4.73438 20.4609 4.85938 20.7812 5.10938C21.1016 5.35156 21.4062 5.72656 21.6953 6.23438L21.9648 6.70312C22.3164 7.32031 22.4922 7.85547 22.4922 8.30859C22.4922 9.02734 22.0508 9.63672 21.168 10.1367L17.0195 12.5391L21.1797 14.9414C21.625 15.1992 21.957 15.4805 22.1758 15.7852C22.3945 16.082 22.5039 16.4141 22.5039 16.7812C22.5039 17.2344 22.3281 17.7656 21.9766 18.375L21.6953 18.8672C21.4062 19.3672 21.1016 19.7383 20.7812 19.9805C20.4609 20.2227 20.1133 20.3438 19.7383 20.3438C19.3164 20.3438 18.8398 20.1914 18.3086 19.8867L14.1602 17.4844V22.2891C14.1602 23.1406 13.9531 23.7539 13.5391 24.1289C13.125 24.5117 12.4688 24.7031 11.5703 24.7031H11.0195ZM11.2305 23.3438H11.3711C11.8867 23.3438 12.2422 23.2539 12.4375 23.0742C12.6406 22.9023 12.7422 22.5703 12.7422 22.0781V15.4688C12.7422 15.3828 12.7617 15.3164 12.8008 15.2695C12.8398 15.2227 12.8945 15.1992 12.9648 15.1992C13.0117 15.1992 13.0586 15.2148 13.1055 15.2461L18.8359 18.5508C19.1562 18.7383 19.4258 18.832 19.6445 18.832C19.8398 18.832 20.0078 18.7656 20.1484 18.6328C20.2969 18.4922 20.4531 18.2812 20.6172 18L20.6992 17.8828C20.8008 17.6953 20.8789 17.5312 20.9336 17.3906C20.9961 17.2422 21.0273 17.1055 21.0273 16.9805C21.0273 16.6445 20.7773 16.3359 20.2773 16.0547L14.5469 12.7266C14.4297 12.6562 14.3711 12.5781 14.3711 12.4922C14.3711 12.3906 14.4297 12.3086 14.5469 12.2461L20.2656 9.03516C20.7656 8.73828 21.0156 8.42578 21.0156 8.09766C21.0156 7.98047 20.9883 7.85156 20.9336 7.71094C20.8789 7.5625 20.8008 7.39453 20.6992 7.20703L20.6172 7.07812C20.4531 6.79688 20.2969 6.58984 20.1484 6.45703C20 6.31641 19.8281 6.24609 19.6328 6.24609C19.4297 6.24609 19.1641 6.33984 18.8359 6.52734L13.1289 9.80859C13.0742 9.83984 13.0234 9.85547 12.9766 9.85547C12.9062 9.85547 12.8477 9.83203 12.8008 9.78516C12.7617 9.73047 12.7422 9.66016 12.7422 9.57422V3.01172C12.7422 2.51953 12.6406 2.1875 12.4375 2.01562C12.2422 1.83594 11.8867 1.74609 11.3711 1.74609H11.2305C10.7148 1.74609 10.3555 1.83594 10.1523 2.01562C9.95703 2.1875 9.85938 2.51953 9.85938 3.01172V9.57422C9.85938 9.66797 9.83594 9.73828 9.78906 9.78516C9.74219 9.83203 9.68359 9.85547 9.61328 9.85547C9.56641 9.85547 9.51172 9.83984 9.44922 9.80859L3.77734 6.52734C3.44922 6.33984 3.17969 6.24609 2.96875 6.24609C2.78125 6.24609 2.60938 6.31641 2.45312 6.45703C2.30469 6.58984 2.14844 6.79688 1.98438 7.07812L1.91406 7.20703C1.70312 7.56641 1.59766 7.86328 1.59766 8.09766C1.59766 8.42578 1.84375 8.73828 2.33594 9.03516L8.06641 12.2461C8.18359 12.3008 8.24219 12.3828 8.24219 12.4922C8.24219 12.5859 8.1875 12.6641 8.07812 12.7266L2.33594 16.0547C1.83594 16.3359 1.58594 16.6445 1.58594 16.9805C1.58594 17.1992 1.69531 17.5 1.91406 17.8828L1.98438 18C2.14844 18.2812 2.30469 18.4922 2.45312 18.6328C2.60938 18.7656 2.77734 18.832 2.95703 18.832C3.17578 18.832 3.44922 18.7383 3.77734 18.5508L9.49609 15.2461C9.54297 15.2148 9.58984 15.1992 9.63672 15.1992C9.70703 15.1992 9.76172 15.2227 9.80078 15.2695C9.83984 15.3164 9.85938 15.3828 9.85938 15.4688V22.0781C9.85938 22.5703 9.95703 22.9023 10.1523 23.0742C10.3555 23.2539 10.7148 23.3438 11.2305 23.3438Z"
    fill="currentColor" />
</svg>